<?xml version="1.0" encoding="iso-8859-1"?>
<!-- Generator: Adobe Illustrator 19.0.0, SVG Export Plug-In . SVG Version: 6.00 Build 0)  -->
<svg xmlns="http://www.w3.org/2000/svg" xmlns:xlink="http://www.w3.org/1999/xlink" version="1.1" id="Capa_1" x="0px" y="0px" viewBox="0 0 512 512" style="enable-background:new 0 0 512 512;" xml:space="preserve" width="512px" height="512px">
<g>
	<g>
		<path d="M456.833,331.78V180.22c15.071-3.932,26.227-17.66,26.227-33.945c0-19.342-15.736-35.077-35.077-35.077    c-10.059,0-19.136,4.263-25.539,11.07l-81.009-46.25c-3.629-2.071-8.248-0.809-10.318,2.819    c-2.071,3.628-0.809,8.248,2.819,10.318l80.752,46.102c-1.151,3.467-1.783,7.169-1.783,11.017c0,3.92,0.656,7.687,1.847,11.211    l-133.163,76.882c-6.44-7.746-16.142-12.687-26.979-12.687c-10.101,0-19.214,4.298-25.62,11.154l-37.081-21.216    c-3.624-2.073-8.247-0.818-10.32,2.808c-2.074,3.625-0.818,8.247,2.809,10.32l36.881,21.101c-1.127,3.436-1.746,7.1-1.746,10.908    c0,16.744,11.798,30.778,27.514,34.247v151.669c-7.708,1.701-14.473,5.941-19.366,11.8L96.567,378.775    c1.625-4.037,2.528-8.439,2.528-13.05c0-16.745-11.798-30.779-27.514-34.248V180.523c6.945-1.533,13.12-5.128,17.853-10.111    l67.811,38.799c1.185,0.678,2.475,0.999,3.749,0.999c2.624,0,5.175-1.366,6.572-3.808c2.074-3.625,0.818-8.247-2.808-10.32    l-67.501-38.622c1.186-3.515,1.839-7.275,1.839-11.185c0-3.68-0.573-7.227-1.629-10.562l133.803-77.252    c6.428,7.172,15.754,11.696,26.119,11.696c9.755,0,18.588-4.005,24.954-10.455l27.609,15.762c1.184,0.676,2.472,0.995,3.743,0.995    c2.626,0,5.18-1.369,6.576-3.814c2.071-3.628,0.809-8.248-2.819-10.318l-27.037-15.435c1.325-3.693,2.052-7.668,2.052-11.812    C292.466,15.736,276.731,0,257.389,0c-19.342,0-35.077,15.736-35.077,35.078c0,3.551,0.534,6.977,1.52,10.21l-133.94,77.331    c-6.419-7.015-15.641-11.422-25.874-11.422c-19.342,0-35.077,15.736-35.077,35.077c0,16.745,11.798,30.779,27.514,34.248v150.953    c-15.716,3.469-27.514,17.503-27.514,34.248c0,19.342,15.736,35.077,35.077,35.077c9.268,0,17.7-3.619,23.979-9.51l132.715,76.623    c-0.764,2.876-1.178,5.893-1.178,9.006c0,19.343,15.736,35.078,35.077,35.078s35.077-15.736,35.077-35.078    c0-2.375-0.24-4.695-0.692-6.938l135.499-78.23c6.223,5.621,14.462,9.05,23.487,9.05c19.342,0,35.077-15.736,35.077-35.077    C483.06,349.439,471.903,335.712,456.833,331.78z M257.389,15.126c11.001,0,19.951,8.951,19.951,19.952    s-8.95,19.951-19.951,19.951c-11.001,0-19.951-8.95-19.951-19.951S246.388,15.126,257.389,15.126z M44.066,146.275    c0-11.001,8.95-19.951,19.951-19.951s19.951,8.95,19.951,19.951s-8.95,19.952-19.951,19.952S44.066,157.276,44.066,146.275z     M64.017,385.676c-11.001,0-19.951-8.95-19.951-19.951s8.95-19.952,19.951-19.952s19.951,8.951,19.951,19.952    S75.019,385.676,64.017,385.676z M447.982,126.324c11.001,0,19.951,8.95,19.951,19.951s-8.95,19.952-19.951,19.952    s-19.951-8.951-19.951-19.952S436.981,126.324,447.982,126.324z M234.659,256.757c0-11.001,8.95-19.951,19.951-19.951    c11.001,0,19.951,8.95,19.951,19.951c0,11.001-8.95,19.951-19.951,19.951C243.609,276.708,234.659,267.759,234.659,256.757z     M254.61,496.874c-11.001,0-19.951-8.951-19.951-19.952s8.95-19.951,19.951-19.951c11.001,0,19.951,8.95,19.951,19.951    S265.612,496.874,254.61,496.874z M412.904,365.725c0,4.841,0.986,9.456,2.767,13.655L282.81,456.088    c-4.957-6.692-12.236-11.56-20.637-13.414V291.004c15.716-3.469,27.514-17.502,27.514-34.247c0-3.086-0.404-6.079-1.157-8.932    l134.052-77.395c5.022,5.278,11.664,8.995,19.123,10.35V331.22C425.351,334.188,412.904,348.526,412.904,365.725z     M447.982,385.676c-11.001,0-19.951-8.95-19.951-19.951s8.95-19.952,19.951-19.952s19.951,8.951,19.951,19.952    S458.984,385.676,447.982,385.676z" fill="#ffffff"/>
	</g>
</g>
<g>
</g>
<g>
</g>
<g>
</g>
<g>
</g>
<g>
</g>
<g>
</g>
<g>
</g>
<g>
</g>
<g>
</g>
<g>
</g>
<g>
</g>
<g>
</g>
<g>
</g>
<g>
</g>
<g>
</g>
</svg>
